<svg width="880" height="720" viewBox="0 0 880 720" fill="none" xmlns="http://www.w3.org/2000/svg">
  <rect width="880" height="720" rx="40" fill="#0B0B0B"/>
  <rect x="96" y="126" width="688" height="468" rx="34" fill="#F5F5F3"/>
  <rect x="138" y="172" width="320" height="236" rx="24" fill="#FFFFFF"/>
  <rect x="486" y="172" width="256" height="126" rx="24" fill="#F25A1C"/>
  <rect x="486" y="320" width="256" height="126" rx="24" fill="#1A1A1A"/>
  <rect x="164" y="204" width="164" height="16" rx="8" fill="#DADADA"/>
  <rect x="164" y="236" width="128" height="12" rx="6" fill="#EDEDED"/>
  <rect x="164" y="268" width="146" height="12" rx="6" fill="#EDEDED"/>
  <rect x="164" y="316" width="212" height="54" rx="18" fill="#0B0B0B"/>
  <path d="M512 210H706" stroke="#FFF" stroke-width="14" stroke-linecap="round"/>
  <path d="M512 242H658" stroke="#FFF" stroke-width="14" stroke-linecap="round" opacity="0.82"/>
  <rect x="514" y="352" width="92" height="18" rx="9" fill="#FFFFFF" opacity="0.92"/>
  <rect x="514" y="384" width="140" height="14" rx="7" fill="#FFFFFF" opacity="0.6"/>
  <rect x="220" y="454" width="242" height="112" rx="24" fill="#FFFFFF"/>
  <rect x="248" y="484" width="102" height="14" rx="7" fill="#DADADA"/>
  <rect x="248" y="512" width="188" height="12" rx="6" fill="#EDEDED"/>
  <circle cx="660" cy="500" r="56" fill="#FFF" opacity="0.95"/>
  <path d="M636 500L654 518L692 478" stroke="#F25A1C" stroke-width="16" stroke-linecap="round" stroke-linejoin="round"/>
</svg>
